<svg width="72" height="72" viewBox="0 0 72 72" fill="none" xmlns="http://www.w3.org/2000/svg">
<rect width="72" height="72" rx="36" fill="#FFEAEF"/>
<path d="M49.6098 16H22C19.7909 16 18 17.7909 18 20V52C18 54.2091 19.7909 56 22 56H49.6098C51.8189 56 53.6098 54.2091 53.6098 52V20C53.6098 17.7909 51.8189 16 49.6098 16Z" stroke="#E5002A" stroke-width="2"/>
<path d="M35.8054 42.5362C36.6136 42.5362 37.2688 41.881 37.2688 41.0728C37.2688 40.2646 36.6136 39.6094 35.8054 39.6094C34.9971 39.6094 34.3419 40.2646 34.3419 41.0728C34.3419 41.881 34.9971 42.5362 35.8054 42.5362Z" stroke="#E5002A"/>
<path d="M31.4151 41.0728C31.4151 40.2646 30.7599 39.6094 29.9517 39.6094C29.1435 39.6094 28.4883 40.2646 28.4883 41.0728C28.4883 41.881 29.1435 42.5362 29.9517 42.5362C30.7599 42.5362 31.4151 41.881 31.4151 41.0728Z" stroke="#E5002A"/>
<path d="M31.4151 46.9264C31.4151 47.7347 30.7599 48.3899 29.9517 48.3899C29.1435 48.3899 28.4883 47.7347 28.4883 46.9264C28.4883 46.1182 29.1435 45.463 29.9517 45.463C30.7599 45.463 31.4151 46.1182 31.4151 46.9264Z" stroke="#E5002A"/>
<path d="M35.8054 45.463C34.9971 45.463 34.3419 46.1182 34.3419 46.9264C34.3419 47.7347 34.9971 48.3899 35.8054 48.3899C36.6136 48.3899 37.2688 47.7347 37.2688 46.9264C37.2688 46.1182 36.6136 45.463 35.8054 45.463Z" stroke="#E5002A"/>
<path d="M41.659 45.463C40.8508 45.463 40.1956 46.1182 40.1956 46.9264C40.1956 47.7347 40.8508 48.3899 41.659 48.3899C42.4672 48.3899 43.1224 47.7347 43.1224 46.9264C43.1224 46.1182 42.4672 45.463 41.659 45.463Z" stroke="#E5002A"/>
<path d="M40.1956 41.0728C40.1956 41.881 40.8508 42.5362 41.659 42.5362C42.4672 42.5362 43.1224 41.881 43.1224 41.0728C43.1224 40.2646 42.4672 39.6094 41.659 39.6094C40.8508 39.6094 40.1956 40.2646 40.1956 41.0728Z" stroke="#E5002A"/>
</svg>
